<svg xmlns="http://www.w3.org/2000/svg" viewBox="0 0 1600 900" role="img" aria-label="主视频 4 飞书办公接入封面">
  <defs>
    <linearGradient id="bg" x1="0" y1="0" x2="1" y2="1">
      <stop offset="0" stop-color="#ece3d2"/>
      <stop offset=".56" stop-color="#ddd3bf"/>
      <stop offset="1" stop-color="#cfc1aa"/>
    </linearGradient>
    <linearGradient id="card" x1="0" y1="0" x2="1" y2="1">
      <stop offset="0" stop-color="#211c18" stop-opacity=".055"/>
      <stop offset="1" stop-color="#211c18" stop-opacity=".018"/>
    </linearGradient>
    <filter id="glow" x="-30%" y="-30%" width="160%" height="160%">
      <feGaussianBlur stdDeviation="12" result="blur"/>
      <feMerge>
        <feMergeNode in="blur"/>
        <feMergeNode in="SourceGraphic"/>
      </feMerge>
    </filter>
  </defs>
  <rect width="1600" height="900" fill="url(#bg)"/>
  <g fill="none" stroke="#211c18" stroke-opacity=".12">
    <path d="M120 168H1480"/>
    <path d="M120 732H1480"/>
    <path d="M224 90V810"/>
    <path d="M1376 90V810"/>
  </g>
  <text x="130" y="108" fill="#211c18" fill-opacity=".52" font-family="monospace" font-size="24" letter-spacing="10">FEISHU OFFICE LOOP</text>
  <g transform="translate(176 290)" fill="#211c18">
    <rect width="278" height="168" fill="url(#card)" stroke="#211c18" stroke-opacity=".32"/>
    <text x="34" y="54" font-family="monospace" font-size="22" letter-spacing="8" fill-opacity=".58">01 · IM</text>
    <text x="34" y="116" font-family="serif" font-size="50">飞书群</text>
    <text x="34" y="146" font-family="sans-serif" font-size="20" fill-opacity=".55">一句话发起任务</text>
  </g>
  <g transform="translate(526 290)" fill="#211c18">
    <rect width="278" height="168" fill="url(#card)" stroke="#211c18" stroke-opacity=".32"/>
    <text x="34" y="54" font-family="monospace" font-size="22" letter-spacing="8" fill-opacity=".58">02 · RUN</text>
    <text x="34" y="116" font-family="serif" font-size="50">OpenClaw</text>
    <text x="34" y="146" font-family="sans-serif" font-size="20" fill-opacity=".55">调度办公 Skill</text>
  </g>
  <g transform="translate(876 290)" fill="#211c18">
    <rect width="278" height="168" fill="url(#card)" stroke="#211c18" stroke-opacity=".32"/>
    <text x="34" y="54" font-family="monospace" font-size="22" letter-spacing="8" fill-opacity=".58">03 · DOC</text>
    <text x="34" y="116" font-family="serif" font-size="50">云文档</text>
    <text x="34" y="146" font-family="sans-serif" font-size="20" fill-opacity=".55">沉淀结构化结果</text>
  </g>
  <g transform="translate(1226 290)" fill="#211c18">
    <rect width="278" height="168" fill="url(#card)" stroke="#211c18" stroke-opacity=".32"/>
    <text x="34" y="54" font-family="monospace" font-size="22" letter-spacing="8" fill-opacity=".58">04 · BACK</text>
    <text x="34" y="116" font-family="serif" font-size="50">回发群里</text>
    <text x="34" y="146" font-family="sans-serif" font-size="20" fill-opacity=".55">团队继续协作</text>
  </g>
  <g stroke="#211c18" stroke-opacity=".38" stroke-width="2" fill="none" stroke-linecap="round">
    <path d="M454 374H526"/>
    <path d="M804 374H876"/>
    <path d="M1154 374H1226"/>
  </g>
  <g fill="#211c18" opacity=".48" filter="url(#glow)">
    <circle cx="454" cy="374" r="5"/>
    <circle cx="804" cy="374" r="5"/>
    <circle cx="1154" cy="374" r="5"/>
  </g>
  <g transform="translate(800 650)" fill="#211c18" text-anchor="middle">
    <text x="0" y="0" font-family="monospace" font-size="24" letter-spacing="9" fill-opacity=".64">MAIN VIDEO 4 · 50-80S</text>
  </g>
</svg>
