<svg xmlns="http://www.w3.org/2000/svg" viewBox="0 0 1600 900" role="img" aria-label="OpenClaw office system map">
  <defs>
    <linearGradient id="bg" x1="0" y1="0" x2="1" y2="1">
      <stop offset="0" stop-color="#17130f"/>
      <stop offset="0.5" stop-color="#211c18"/>
      <stop offset="1" stop-color="#383024"/>
    </linearGradient>
    <linearGradient id="card" x1="0" y1="0" x2="1" y2="1">
      <stop offset="0" stop-color="#efe4cf" stop-opacity="0.13"/>
      <stop offset="1" stop-color="#efe4cf" stop-opacity="0.04"/>
    </linearGradient>
  </defs>
  <rect width="1600" height="900" fill="url(#bg)"/>
  <g fill="none" stroke="#efe4cf" stroke-opacity="0.12">
    <path d="M160 180H1440"/>
    <path d="M160 720H1440"/>
    <path d="M260 100V800"/>
    <path d="M1340 100V800"/>
  </g>
  <g transform="translate(800 450)">
    <circle r="168" fill="#efe4cf" opacity="0.06"/>
    <circle r="168" fill="none" stroke="#efe4cf" stroke-opacity="0.72" stroke-width="2"/>
    <circle r="260" fill="none" stroke="#efe4cf" stroke-opacity="0.2" stroke-width="1"/>
    <circle r="338" fill="none" stroke="#efe4cf" stroke-opacity="0.1" stroke-width="1"/>
    <g fill="none" stroke="#efe4cf" stroke-width="1.5" stroke-linecap="round" stroke-opacity="0.34">
      <path d="M-330-178C-250-120-178-108-116-86"/>
      <path d="M330-178C250-120 178-108 116-86"/>
      <path d="M-320 256C-238 174-174 138-112 92"/>
      <path d="M320 256C238 174 174 138 112 92"/>
      <path d="M0 330C-18 235-16 176 0 128"/>
    </g>
    <g fill="none" stroke="#efe4cf" stroke-width="1" stroke-linecap="round" stroke-dasharray="2 14" stroke-opacity="0.24">
      <path d="M-410-72C-300-170-185-214 0-214S300-170 410-72"/>
      <path d="M-410 72C-300 170-185 214 0 214S300 170 410 72"/>
    </g>
    <g fill="#efe4cf" opacity="0.62">
      <circle cx="-116" cy="-86" r="3"/>
      <circle cx="116" cy="-86" r="3"/>
      <circle cx="-112" cy="92" r="3"/>
      <circle cx="112" cy="92" r="3"/>
      <circle cx="0" cy="128" r="3"/>
    </g>
    <text x="0" y="-8" fill="#efe4cf" text-anchor="middle" font-family="serif" font-size="72">OpenClaw</text>
    <text x="0" y="46" fill="#efe4cf" fill-opacity="0.62" text-anchor="middle" font-family="monospace" font-size="22" letter-spacing="8">SKILL RUNTIME</text>
  </g>
  <g font-family="serif" fill="#efe4cf">
    <g transform="translate(190 180)">
      <rect width="280" height="132" fill="url(#card)" stroke="#efe4cf" stroke-opacity="0.46"/>
      <text x="34" y="48" font-family="monospace" font-size="20" letter-spacing="7" fill-opacity="0.62">01 · IM</text>
      <text x="34" y="100" font-size="42">飞书 IM</text>
    </g>
    <g transform="translate(1130 180)">
      <rect width="280" height="132" fill="url(#card)" stroke="#efe4cf" stroke-opacity="0.46"/>
      <text x="34" y="48" font-family="monospace" font-size="20" letter-spacing="7" fill-opacity="0.62">02 · DOCS</text>
      <text x="34" y="100" font-size="42">云文档</text>
    </g>
    <g transform="translate(200 608)">
      <rect width="280" height="132" fill="url(#card)" stroke="#efe4cf" stroke-opacity="0.46"/>
      <text x="34" y="48" font-family="monospace" font-size="20" letter-spacing="7" fill-opacity="0.62">03 · CAL</text>
      <text x="34" y="100" font-size="42">日历</text>
    </g>
    <g transform="translate(1120 608)">
      <rect width="280" height="132" fill="url(#card)" stroke="#efe4cf" stroke-opacity="0.46"/>
      <text x="34" y="48" font-family="monospace" font-size="20" letter-spacing="7" fill-opacity="0.62">04 · PROJECT</text>
      <text x="34" y="100" font-size="42">项目</text>
    </g>
    <g transform="translate(660 690)">
      <rect width="280" height="132" fill="url(#card)" stroke="#efe4cf" stroke-opacity="0.46"/>
      <text x="34" y="48" font-family="monospace" font-size="20" letter-spacing="7" fill-opacity="0.62">05 · GROUP</text>
      <text x="34" y="100" font-size="42">群聊</text>
    </g>
  </g>
  <g font-family="monospace" fill="#efe4cf" fill-opacity="0.5" font-size="18" letter-spacing="8">
    <text x="120" y="92">OFFICE ACTIONS AS TOOL SURFACE</text>
    <text x="760" y="842" text-anchor="middle">IM · DOCS · CALENDAR · PROJECT · GROUP</text>
  </g>
</svg>
