<svg xmlns="http://www.w3.org/2000/svg" viewBox="0 0 1600 900" role="img" aria-label="Package skill cover">
  <defs>
    <linearGradient id="bg" x1="0" y1="0" x2="1" y2="1">
      <stop offset="0" stop-color="#efe4cf"/>
      <stop offset="0.52" stop-color="#bdb29d"/>
      <stop offset="1" stop-color="#2d261f"/>
    </linearGradient>
    <linearGradient id="dark" x1="0" y1="0" x2="1" y2="1">
      <stop offset="0" stop-color="#16120f" stop-opacity="0.92"/>
      <stop offset="1" stop-color="#3a3027" stop-opacity="0.84"/>
    </linearGradient>
    <filter id="soft"><feGaussianBlur stdDeviation="30"/></filter>
  </defs>
  <rect width="1600" height="900" fill="url(#bg)"/>
  <circle cx="220" cy="170" r="260" fill="#fff7e8" opacity="0.28" filter="url(#soft)"/>
  <circle cx="1250" cy="720" r="320" fill="#18130f" opacity="0.28" filter="url(#soft)"/>
  <g transform="translate(190 160)">
    <rect x="0" y="0" width="1220" height="580" fill="url(#dark)" stroke="#16120f" stroke-opacity="0.5"/>
    <text x="70" y="92" fill="#efe4cf" font-family="monospace" font-size="22" letter-spacing="10" opacity="0.72">PACKAGE AS SKILL</text>
    <text x="70" y="174" fill="#efe4cf" font-family="serif" font-size="74">From One-Off Plan</text>
    <text x="70" y="248" fill="#efe4cf" font-family="serif" font-size="74">To Team Asset</text>
    <g transform="translate(80 360)" fill="none" stroke="#efe4cf" stroke-opacity="0.65" stroke-width="2">
      <rect x="0" y="0" width="150" height="92"/>
      <rect x="205" y="0" width="150" height="92"/>
      <rect x="410" y="0" width="150" height="92"/>
      <rect x="615" y="0" width="150" height="92"/>
      <rect x="820" y="0" width="150" height="92"/>
      <path d="M150 46H205M355 46H410M560 46H615M765 46H820"/>
    </g>
    <g transform="translate(80 416)" fill="#efe4cf" font-family="monospace" font-size="17" letter-spacing="4" opacity="0.74">
      <text x="24" y="0">README</text>
      <text x="226" y="0">PARAMS</text>
      <text x="438" y="0">RULES</text>
      <text x="652" y="0">ERROR</text>
      <text x="866" y="0">ZIP</text>
    </g>
    <text x="70" y="530" fill="#efe4cf" font-family="monospace" font-size="19" letter-spacing="5" opacity="0.55">DOCUMENT · PACKAGE · HAND OFF</text>
  </g>
  <g transform="translate(800 450)">
    <circle r="80" fill="#efe4cf" opacity="0.18" stroke="#efe4cf" stroke-opacity="0.78" stroke-width="2"/>
    <path d="M-18 -34L46 0L-18 34Z" fill="#efe4cf"/>
  </g>
</svg>
