<svg xmlns="http://www.w3.org/2000/svg" viewBox="0 0 1600 900" role="img" aria-label="Local rough cut cover">
  <defs>
    <linearGradient id="bg" x1="0" y1="0" x2="1" y2="1">
      <stop offset="0" stop-color="#17130f"/>
      <stop offset="0.52" stop-color="#302820"/>
      <stop offset="1" stop-color="#746c5c"/>
    </linearGradient>
    <linearGradient id="line" x1="0" y1="0" x2="1" y2="0">
      <stop offset="0" stop-color="#efe4cf" stop-opacity="0.15"/>
      <stop offset="0.5" stop-color="#efe4cf" stop-opacity="0.9"/>
      <stop offset="1" stop-color="#efe4cf" stop-opacity="0.15"/>
    </linearGradient>
    <filter id="blur">
      <feGaussianBlur stdDeviation="28"/>
    </filter>
  </defs>
  <rect width="1600" height="900" fill="url(#bg)"/>
  <circle cx="1280" cy="170" r="260" fill="#efe4cf" opacity="0.14" filter="url(#blur)"/>
  <circle cx="260" cy="720" r="320" fill="#0a0a0a" opacity="0.32" filter="url(#blur)"/>
  <g transform="translate(170 190)">
    <rect x="0" y="0" width="1260" height="500" fill="#16120f" opacity="0.58" stroke="#efe4cf" stroke-opacity="0.48"/>
    <text x="60" y="88" fill="#efe4cf" font-family="monospace" font-size="23" letter-spacing="10" opacity="0.72">LOCAL ROUGH CUT</text>
    <text x="60" y="156" fill="#efe4cf" font-family="serif" font-size="68">FFmpeg + whisper.cpp</text>
    <text x="60" y="212" fill="#efe4cf" font-family="monospace" font-size="22" letter-spacing="5" opacity="0.58">SILENCE · TRANSCRIPT · WASTE SEGMENT</text>
    <g transform="translate(70 310)">
      <rect x="0" y="-54" width="1120" height="108" fill="#efe4cf" opacity="0.05" stroke="#efe4cf" stroke-opacity="0.32"/>
      <path d="M35 0H1085" stroke="url(#line)" stroke-width="4"/>
      <path d="M120 -32V32M320 -32V32M560 -32V32M770 -32V32M960 -32V32" stroke="#efe4cf" stroke-opacity="0.52" stroke-width="3"/>
      <rect x="122" y="-30" width="196" height="60" fill="#efe4cf" opacity="0.18"/>
      <rect x="562" y="-30" width="206" height="60" fill="#efe4cf" opacity="0.18"/>
      <rect x="962" y="-30" width="120" height="60" fill="#efe4cf" opacity="0.18"/>
    </g>
    <text x="60" y="448" fill="#efe4cf" font-family="monospace" font-size="19" letter-spacing="5" opacity="0.58">INPUT VIDEO  →  DETECT  →  ROUGH CUT</text>
  </g>
  <g transform="translate(800 450)">
    <circle r="80" fill="#efe4cf" opacity="0.15" stroke="#efe4cf" stroke-opacity="0.72" stroke-width="2"/>
    <path d="M-18 -34L46 0L-18 34Z" fill="#efe4cf"/>
  </g>
</svg>
